<?xml version="1.0" standalone="no"?>
<!DOCTYPE svg PUBLIC "-//W3C//DTD SVG 20010904//EN"
 "http://www.w3.org/TR/2001/REC-SVG-20010904/DTD/svg10.dtd">
<svg version="1.0" xmlns="http://www.w3.org/2000/svg"
 width="400.000000pt" height="400.000000pt" viewBox="0 0 400.000000 400.000000"
 preserveAspectRatio="xMidYMid meet">
<metadata>
Created by potrace 1.14, written by Peter Selinger 2001-2017
</metadata>
<g transform="translate(0.000000,400.000000) scale(0.100000,-0.100000)"
fill="#000000" stroke="none">
<path d="M1841 2647 c-85 -32 -161 -137 -161 -223 0 -22 9 -67 20 -99 11 -32
20 -63 20 -69 0 -6 -20 -24 -45 -39 -175 -111 -253 -241 -226 -376 16 -80 46
-135 102 -185 58 -52 118 -75 214 -83 82 -6 164 13 226 54 l39 25 34 -30 c46
-40 97 -56 158 -49 66 8 112 39 137 91 22 44 29 126 11 126 -5 0 -10 -14 -10
-30 0 -45 -25 -97 -50 -105 -32 -10 -63 16 -103 88 l-36 64 25 62 c15 38 29
100 35 154 23 215 26 231 54 255 14 12 37 22 51 22 15 0 24 6 24 15 0 13 -23
15 -150 15 -142 0 -191 -10 -117 -25 102 -20 121 -53 120 -205 -1 -99 -23
-204 -51 -248 -6 -8 -49 67 -127 221 l-120 234 51 49 c94 91 98 222 9 280 -33
21 -93 26 -134 11z m139 -42 c25 -26 39 -110 26 -158 -7 -28 -82 -107 -101
-107 -21 0 -75 142 -75 195 0 35 6 51 25 70 34 35 93 34 125 0z m-81 -695 c64
-124 117 -227 119 -230 1 -3 -17 -18 -40 -33 -31 -20 -55 -27 -90 -27 -44 0
-54 4 -98 46 -85 80 -170 270 -170 381 0 66 17 100 72 147 l42 37 24 -48 c13
-26 76 -149 141 -273z"/>
<path d="M357 2634 c-18 -18 -2 -24 63 -24 l70 0 0 -495 0 -495 -71 0 c-52 0
-70 -3 -67 -12 4 -10 108 -14 466 -16 l462 -2 0 170 c0 173 -9 209 -31 128
-29 -109 -94 -194 -181 -237 -60 -31 -63 -31 -215 -31 l-153 0 0 495 0 494 65
3 c36 2 66 8 68 13 2 11 -465 20 -476 9z"/>
<path d="M2548 2634 c-16 -16 7 -24 68 -24 l64 0 0 -495 0 -494 -67 -3 c-41
-2 -66 -7 -63 -13 3 -6 113 -10 300 -10 250 0 305 3 360 18 215 58 357 192
395 374 52 246 -45 474 -245 571 -134 66 -193 75 -515 80 -159 2 -293 0 -297
-4z m632 -55 c142 -67 193 -189 194 -469 0 -315 -93 -454 -327 -490 -43 -6
-96 -9 -118 -5 l-39 7 0 495 0 495 118 -4 c100 -3 125 -7 172 -29z"/>
</g>
</svg>
